<?xml version="1.0" encoding="UTF-8" standalone="no"?>
<svg width="270px" height="272px" viewBox="0 0 270 272" version="1.1" xmlns="http://www.w3.org/2000/svg" xmlns:xlink="http://www.w3.org/1999/xlink">
    <!-- Generator: Sketch 39.1 (31720) - http://www.bohemiancoding.com/sketch -->
    <title>morph-logo-white</title>
    <desc>Created with Sketch.</desc>
    <defs></defs>
    <g id="Final" stroke="none" stroke-width="1" fill="none" fill-rule="evenodd">
        <g id="morph-logo-white" fill="#FFFFFF">
            <g id="Group-2-Copy" transform="translate(6.000000, 0.000000)">
                <path d="M179,86.8194675 L179,50.0001629 C179,22.3951674 156.614237,0 129,0 C101.379691,0 79,22.3858354 79,50.0001629 L79,86.8194675 L79,120 L78.975435,120 C78.4544037,130.581112 69.7103702,139 59,139 C47.954305,139 39,130.045695 39,119 C39,107.954305 47.954305,99 59,99 L59,89 C42.4314575,89 29,102.431458 29,119 C29,135.568542 42.4314575,149 59,149 C74.5764849,149 87.38031,137.128832 88.8577492,121.940222 C95.0992521,127.751912 99,136.022864 99,145.200535 C99,162.789264 84.673112,177.047746 67,177.047746 C55.0173866,177.047746 44.5730413,170.493084 39.0894697,160.789923 L28.0183291,160.789916 C34.2274752,176.153766 49.3410241,187 67,187 C90.1959595,187 109,168.285742 109,145.200535 C109,130.143309 101.000302,116.945591 89,109.58738 L89,49.9999569 C89,27.9085907 106.903753,10 129,10 C151.09139,10 169,27.9003805 169,49.9999569 L169,109.58738 C156.999698,116.945591 149,130.143309 149,145.200535 C149,168.285742 167.804041,187 191,187 C208.658976,187 223.772525,176.153766 229.981667,160.789917 L218.910534,160.789916 C213.426959,170.493084 202.982613,177.047746 191,177.047746 C173.326888,177.047746 159,162.789264 159,145.200535 C159,136.022864 162.900748,127.751912 169.142251,121.940222 C170.61969,137.128832 183.423515,149 199,149 C215.568542,149 229,135.568542 229,119 C229,102.431458 215.568542,89 199,89 L199,99 C210.045695,99 219,107.954305 219,119 C219,130.045695 210.045695,139 199,139 C188.28963,139 179.545596,130.581112 179.024565,120 L179,120 L179,86.8194675 Z M104,90 C106.761424,90 109,87.7614237 109,85 C109,82.2385763 106.761424,80 104,80 C101.238576,80 99,82.2385763 99,85 C99,87.7614237 101.238576,90 104,90 Z M154,90 C156.761424,90 159,87.7614237 159,85 C159,82.2385763 156.761424,80 154,80 C151.238576,80 149,82.2385763 149,85 C149,87.7614237 151.238576,90 154,90 Z" id="Combined-Shape"></path>
                <path d="M53.904,272 L53.904,221.6 L43.896,221.6 L27.336,255.08 L10.704,221.6 L0.624,221.6 L0.624,272 L8.616,272 L8.616,234.344 L24.528,266.744 L30.072,266.744 L45.984,234.344 L46.056,272 L53.904,272 Z M87.26,221.384 C72.212,221.384 60.548,232.328 60.548,246.8 C60.548,261.2 72.212,272.36 87.26,272.36 C102.308,272.36 113.972,261.2 113.972,246.8 C113.972,232.4 102.308,221.384 87.26,221.384 L87.26,221.384 Z M87.332,229.016 C97.196,229.016 105.26,236.792 105.26,246.8 C105.26,256.808 97.196,264.728 87.332,264.728 C77.468,264.728 69.188,256.808 69.188,246.8 C69.188,236.792 77.396,229.016 87.332,229.016 L87.332,229.016 Z M152.512,272 L162.16,272 L150.856,255.152 C157.552,252.56 161.296,246.872 161.296,238.808 C161.296,227.864 153.88,221.6 140.992,221.6 L120.544,221.6 L120.544,272 L129.04,272 L129.04,256.808 L140.992,256.808 C141.784,256.808 142.576,256.808 143.296,256.736 L152.512,272 Z M129.04,249.176 L129.04,229.232 L140.992,229.232 C148.768,229.232 153.232,232.4 153.232,239.024 C153.232,245.864 148.768,249.176 140.992,249.176 L129.04,249.176 Z M170.1,221.6 L170.1,272 L178.596,272 L178.596,256.808 L190.188,256.808 C202.86,256.808 210.132,250.184 210.132,238.808 C210.132,227.864 202.86,221.6 190.188,221.6 L170.1,221.6 Z M178.596,229.232 L189.828,229.232 C197.604,229.232 201.996,232.4 201.996,239.024 C201.996,245.864 197.604,249.176 189.828,249.176 L178.596,249.176 L178.596,229.232 Z M259.76,272 L259.76,221.6 L251.264,221.6 L251.264,243.488 L224.552,243.488 L224.552,221.6 L216.056,221.6 L216.056,272 L224.552,272 L224.552,251.12 L251.264,251.12 L251.264,272 L259.76,272 Z" id="MORPH"></path>
            </g>
        </g>
    </g>
</svg>